HIERARCHY
ROOT Pelvis
{
	OFFSET 0.000000 0.000000 0.000000
	CHANNELS 6 Xposition Yposition Zposition Zrotation Yrotation Xrotation 
	JOINT Left_hip
	{
		OFFSET 0.067986 -0.089946 -0.007639
		CHANNELS 3 Zrotation Yrotation Xrotation
		JOINT Left_knee
		{
			OFFSET 0.036308 -0.388288 -0.004016
			CHANNELS 3 Zrotation Yrotation Xrotation
			JOINT Left_ankle
			{
				OFFSET -0.012264 -0.413250 -0.042878
				CHANNELS 3 Zrotation Yrotation Xrotation
				JOINT Left_foot
				{
					OFFSET 0.024043 -0.058563 0.118570
					CHANNELS 3 Zrotation Yrotation Xrotation
					End Site
					{
						OFFSET 0.000000 0.000000 0.000000
					}
				}
			}
		}
	}
	JOINT Right_hip
	{
		OFFSET -0.065648 -0.089374 -0.003858
		CHANNELS 3 Zrotation Yrotation Xrotation
		JOINT Right_knee
		{
			OFFSET -0.042132 -0.395021 -0.006361
			CHANNELS 3 Zrotation Yrotation Xrotation
			JOINT Right_ankle
			{
				OFFSET 0.014805 -0.413264 -0.041054
				CHANNELS 3 Zrotation Yrotation Xrotation
				JOINT Right_foot
				{
					OFFSET -0.021758 -0.049013 0.121832
					CHANNELS 3 Zrotation Yrotation Xrotation
					End Site
					{
						OFFSET 0.000000 0.000000 0.000000
					}
				}
			}
		}
	}
	JOINT Spine1
	{
		OFFSET -0.002755 0.104406 -0.022277
		CHANNELS 3 Zrotation Yrotation Xrotation
		JOINT Spine2
		{
			OFFSET 0.004136 0.129393 -0.002186
			CHANNELS 3 Zrotation Yrotation Xrotation
			JOINT Spine3
			{
				OFFSET 0.001906 0.049304 0.025578
				CHANNELS 3 Zrotation Yrotation Xrotation
				JOINT Neck
				{
					OFFSET -0.004620 0.210958 -0.044063
					CHANNELS 3 Zrotation Yrotation Xrotation
					JOINT Head
					{
						OFFSET 0.003833 0.067393 0.052435
						CHANNELS 3 Zrotation Yrotation Xrotation
						End Site
						{
							OFFSET 0.000000 0.000000 0.000000
						}
					}
				}
				JOINT Left_collar
				{
					OFFSET 0.070771 0.116689 -0.037192
					CHANNELS 3 Zrotation Yrotation Xrotation
					JOINT Left_shoulder
					{
						OFFSET 0.080652 0.031596 -0.005617
						CHANNELS 3 Zrotation Yrotation Xrotation
						JOINT Left_elbow
						{
							OFFSET 0.262654 -0.015020 -0.027939
							CHANNELS 3 Zrotation Yrotation Xrotation
							JOINT Left_wrist
							{
								OFFSET 0.250438 0.010062 -0.000990
								CHANNELS 3 Zrotation Yrotation Xrotation
								JOINT Left_palm
								{
									OFFSET 0.081198 -0.010037 -0.013706
									CHANNELS 3 Zrotation Yrotation Xrotation
									End Site
									{
										OFFSET 0.000000 0.000000 0.000000
									}
								}
							}
						}
					}
				}
				JOINT Right_collar
				{
					OFFSET -0.072972 0.115556 -0.040762
					CHANNELS 3 Zrotation Yrotation Xrotation
					JOINT Right_shoulder
					{
						OFFSET -0.082917 0.031841 -0.006673
						CHANNELS 3 Zrotation Yrotation Xrotation
						JOINT Right_elbow
						{
							OFFSET -0.252882 -0.013790 -0.020410
							CHANNELS 3 Zrotation Yrotation Xrotation
							JOINT Right_wrist
							{
								OFFSET -0.255570 0.009163 -0.005138
								CHANNELS 3 Zrotation Yrotation Xrotation
								JOINT Right_palm
								{
									OFFSET -0.080804 -0.007282 -0.010415
									CHANNELS 3 Zrotation Yrotation Xrotation
									End Site
									{
										OFFSET 0.000000 0.000000 0.000000
									}
								}
							}
						}
					}
				}
			}
		}
	}
}
MOTION
Frames: 10
Frame Time: 0.100000
0.053978 0.038260 -0.172547 178.165531 18.297917 -16.207323 6.959734 4.406026 -2.586365 -4.842245 -4.523611 9.388073 -4.356119 1.364949 -4.377255 7.959947 16.737756 -1.150950 -5.440636 -3.317599 4.573199 7.204688 -4.044346 1.737324 0.766184 -3.110494 -7.787871 2.535892 -5.209100 2.620659 3.218729 5.047957 13.407328 4.347997 -3.469335 13.166971 4.501100 0.561132 -3.821984 2.242174 1.479493 1.382421 -1.425308 -2.975842 -12.187867 -30.239939 -13.569770 5.397085 -39.589537 -2.103551 9.447500 -2.473978 -32.690359 1.884428 -8.732257 0.050157 17.611332 -16.458657 -4.707806 -28.387675 22.173133 19.313919 1.967030 48.652309 11.678295 29.592710 175.354901 46.085140 -170.405482 4.852548 19.229286 -45.756925 13.362897 6.598775 -6.618430 
0.075960 0.041791 -0.173669 178.070590 20.312311 -16.326590 7.636984 3.895873 -4.749453 -4.809658 -5.281046 11.481876 -5.250851 0.962266 -3.794399 8.777802 16.433747 -1.158956 -4.784412 -3.830163 4.647722 7.995725 -4.712558 1.284300 0.177883 -3.798680 -8.513728 2.407726 -5.102048 3.053791 3.715137 5.291333 14.390781 4.382162 -3.425659 12.532285 4.729364 0.711649 -3.878143 2.038716 1.655690 0.573784 -1.453274 -3.029906 -11.787252 -30.529410 -13.740931 5.531439 -39.807616 -1.394464 9.047208 -3.226749 -29.049917 1.452486 -8.871194 0.344764 17.534641 -16.322465 -4.739531 -28.853209 22.078076 19.669797 2.149638 47.969738 11.833533 29.086936 174.910267 46.122688 -170.914990 4.052983 19.711671 -47.100905 13.352812 6.355569 -6.270480 
0.090325 0.042522 -0.172114 178.331112 21.699104 -16.714487 7.851960 3.844999 -4.229307 -4.576499 -6.101933 10.391085 -5.886486 0.785628 -3.004227 9.225037 16.020545 -1.228107 -4.415375 -4.088222 5.099446 8.152904 -5.166129 1.178054 -0.319404 -4.382504 -8.936748 2.559899 -5.082547 3.348786 3.896085 5.272936 14.107713 4.216714 -3.346862 12.257736 4.574606 0.771970 -3.807303 2.224645 1.440280 1.346313 -1.413453 -3.158835 -10.500083 -30.305047 -13.500746 5.521649 -39.969556 -0.954714 8.940755 -3.788921 -27.325299 1.773768 -8.836427 0.260368 17.197679 -16.266045 -4.612379 -29.103311 21.558381 19.667803 2.047410 47.952395 12.073951 28.899038 174.616337 46.241064 -170.904371 3.405310 19.894595 -47.666648 13.206032 6.122881 -5.967902 
0.099629 0.042998 -0.170514 178.377903 22.943910 -17.438950 7.932883 3.742581 -3.149311 -4.176431 -7.058158 8.996360 -6.003151 0.663525 -2.365254 8.981413 15.870920 -1.471969 -4.102548 -4.234034 5.603525 8.191400 -5.678435 1.647144 -1.378038 -4.810146 -9.402002 3.880828 -5.535149 3.726115 4.048798 5.005002 13.663357 4.195620 -3.385084 12.316177 4.497584 0.639690 -3.647629 2.579141 0.865245 3.352754 -1.415962 -2.956715 -9.232586 -29.974040 -13.003076 5.424130 -40.239518 -1.428716 9.096785 -3.585297 -28.076331 2.262465 -8.424130 0.069604 16.188215 -15.970584 -4.215224 -28.733428 20.867558 19.239654 1.815452 47.924334 12.370678 28.838620 174.364877 46.359280 -170.887745 2.960163 19.928334 -48.373021 12.657185 5.800054 -5.358413 
0.107092 0.044033 -0.170126 178.196929 24.256882 -18.241823 8.208138 3.453729 -2.914633 -4.205442 -7.622660 9.033211 -5.993258 0.333214 -2.032479 8.502112 15.803868 -1.496523 -3.831804 -4.494605 6.267903 8.317727 -6.333897 1.769281 -2.433925 -4.998657 -9.698400 5.338746 -6.250756 4.043038 4.011272 4.936552 13.709230 4.424745 -3.709680 12.932458 4.686106 0.530390 -3.711635 3.082525 0.025165 4.852015 -0.629915 -3.115845 -9.167428 -29.786843 -13.263054 5.741380 -40.272660 -2.473761 9.287589 -2.609475 -30.768843 2.281281 -8.045635 -0.455795 14.400352 -15.473553 -3.727760 -27.729296 20.489837 19.280944 2.041594 47.954445 12.499797 28.505915 174.381361 46.265446 -170.328510 2.668050 19.953995 -49.108888 12.007453 5.565782 -4.568718 
0.112862 0.044940 -0.170388 178.170986 24.718726 -18.137488 8.407484 3.196886 -3.298366 -4.124593 -7.544392 8.896774 -6.285207 0.245226 -1.703000 8.651874 15.508183 -1.479102 -3.591823 -4.556152 5.990259 8.456228 -6.678065 1.755255 -2.493242 -5.067166 -9.824954 5.194528 -6.147272 4.277122 3.989804 4.904168 13.894541 4.555323 -3.707386 12.799629 4.799027 0.567298 -3.863079 2.923463 0.109734 3.565091 -0.400035 -3.542412 -9.231124 -29.785774 -13.340953 5.738014 -40.292816 -3.003823 9.405639 -1.251083 -33.784276 1.595422 -7.747139 -1.053380 13.122674 -15.331177 -3.621658 -26.757310 21.075407 19.222244 2.401603 47.934458 12.130308 28.253597 174.769868 46.377932 -169.634356 2.607770 20.072706 -48.586304 11.842322 5.517979 -4.268795 
0.116146 0.044346 -0.169620 178.476993 24.102809 -17.369396 8.472998 3.403090 -2.851003 -3.631838 -7.134468 6.893056 -6.687022 0.303877 -1.067285 8.898823 15.059009 -1.242559 -3.332291 -4.422245 5.395278 8.393189 -6.733260 1.320438 -2.210344 -4.795802 -9.628898 4.721458 -5.941272 4.559848 3.790518 4.748126 13.504289 4.461827 -3.733120 12.170407 4.613955 0.496269 -4.030976 2.548390 1.170915 1.917321 -0.983579 -3.698661 -9.053449 -29.708885 -13.041222 5.380781 -40.359169 -3.005858 9.063887 -0.374680 -34.150864 1.165541 -7.864515 -1.317146 12.861053 -15.685551 -3.955517 -26.467507 21.658034 18.720947 2.056693 48.258661 12.836384 27.640316 177.054365 46.768045 -166.908557 2.484865 19.706808 -47.008636 12.495898 5.804091 -4.411173 
0.118576 0.043527 -0.167451 178.726413 23.148091 -17.075887 8.692728 3.837873 -1.736405 -3.239991 -6.823397 4.912248 -6.707622 0.481125 -0.738176 8.535871 14.130209 -1.145502 -3.036518 -4.304479 4.931797 8.216021 -6.512813 1.753469 -1.984155 -4.441485 -9.700841 4.347279 -6.120106 4.651858 3.413548 4.494736 12.909001 4.424598 -3.971878 11.852539 4.375295 0.317886 -3.940264 2.076575 2.187953 1.791291 -1.409804 -3.292649 -8.917995 -28.928963 -12.364048 4.860819 -41.151029 -3.496784 8.009362 1.128233 -33.089809 0.659778 -7.559066 -1.430317 11.185429 -16.071223 -4.330529 -25.673071 21.386830 17.053230 1.370835 47.765805 13.585108 24.535521 -175.672761 49.852050 -159.654623 1.577335 18.576979 -45.293941 13.613934 6.178773 -4.550318 
0.120040 0.042924 -0.163706 178.770755 22.287629 -17.178324 9.050722 3.646115 -1.103677 -3.208245 -6.687813 4.486590 -6.364885 1.090152 -0.861090 7.481346 12.095098 -1.272000 -2.771528 -4.698504 5.131888 8.188934 -5.723594 1.921222 -1.291561 -4.744318 -9.979966 3.156806 -5.237675 5.142250 2.950617 4.316624 12.058893 4.492402 -4.261531 11.667088 4.026036 0.020423 -3.397978 1.358837 3.305921 1.110153 -1.393956 -2.800940 -8.410354 -28.604231 -10.539726 4.148759 -41.340681 -4.411175 6.776998 3.194024 -33.039508 0.352990 -8.291875 -1.660981 7.763416 -15.936731 -4.861027 -22.663564 22.713508 13.409560 1.097294 44.868966 12.473601 18.372351 -156.165315 62.089407 -141.472743 3.897415 16.373657 -36.450593 14.361878 6.869376 -4.628381 
0.121171 0.041962 -0.158072 178.654178 21.507735 -17.479230 9.476522 3.247117 -0.155799 -3.244506 -7.056447 4.097805 -5.842899 2.596789 -1.129050 6.063157 9.773161 -1.772618 -2.403067 -5.334222 5.961626 8.149354 -3.876672 1.396587 -0.020669 -6.148084 -10.042205 1.289748 -2.457570 5.389610 2.558760 4.041844 11.078558 4.047831 -3.857017 10.429518 3.478745 0.003635 -2.545809 0.966575 4.555602 -0.120858 -1.067088 -2.485221 -7.186485 -27.820046 -8.257589 3.362600 -41.051491 -5.743625 6.150412 2.665172 -30.665389 1.988213 -5.129374 -1.813094 3.607722 -14.369592 -5.459977 -18.494825 24.581371 10.647482 1.749307 42.181817 11.736682 12.412176 -73.791200 70.981046 -63.663399 -0.316155 10.364285 -22.989855 15.660248 7.910911 -5.951888 
